<?xml version="1.0" encoding="UTF-8" standalone="no"?>
<!-- Created with Inkscape (http://www.inkscape.org/) -->

<svg
   version="1.2"
   width="340"
   height="200.00002"
   id="svg2"
   inkscape:version="1.2.1 (9c6d41e410, 2022-07-14, custom)"
   sodipodi:docname="manjarolinux-text-rounded.svg"
   xml:space="preserve"
   xmlns:inkscape="http://www.inkscape.org/namespaces/inkscape"
   xmlns:sodipodi="http://sodipodi.sourceforge.net/DTD/sodipodi-0.dtd"
   xmlns="http://www.w3.org/2000/svg"
   xmlns:svg="http://www.w3.org/2000/svg"
   xmlns:rdf="http://www.w3.org/1999/02/22-rdf-syntax-ns#"
   xmlns:cc="http://creativecommons.org/ns#"
   xmlns:dc="http://purl.org/dc/elements/1.1/"><sodipodi:namedview
     pagecolor="#585858"
     bordercolor="#424242"
     borderopacity="1"
     objecttolerance="10"
     gridtolerance="10"
     guidetolerance="10"
     inkscape:pageopacity="0"
     inkscape:pageshadow="2"
     inkscape:window-width="1920"
     inkscape:window-height="1011"
     id="namedview15"
     showgrid="false"
     inkscape:showpageshadow="false"
     fit-margin-top="0"
     fit-margin-left="0"
     fit-margin-right="0"
     fit-margin-bottom="0"
     inkscape:zoom="1.4939594"
     inkscape:cx="328.32218"
     inkscape:cy="36.145561"
     inkscape:window-x="0"
     inkscape:window-y="0"
     inkscape:window-maximized="1"
     inkscape:current-layer="svg2"
     inkscape:pagecheckerboard="0"
     showguides="true"
     inkscape:guide-bbox="true"
     inkscape:deskcolor="#585858"><inkscape:grid
       type="xygrid"
       id="grid837"
       originx="141.00642"
       originy="184.06879" /></sodipodi:namedview><defs
     id="defs4" /><metadata
     id="metadata7"><rdf:RDF><cc:Work
         rdf:about=""><dc:format>image/svg+xml</dc:format><dc:type
           rdf:resource="http://purl.org/dc/dcmitype/StillImage" /></cc:Work></rdf:RDF></metadata><g
     id="g349"
     transform="matrix(0.75,0,0,0.75,49.362458,73.227266)"><g
       id="g297"
       transform="matrix(1.030303,0,0,1.030303,1.9944427,6.8888883)"><rect
         style="fill:none;stroke-width:0.974171"
         id="rect289"
         width="440"
         height="258.82355"
         x="-65.816612"
         y="-101.45097"
         rx="1.4666667" /><g
         id="g804"
         transform="matrix(0.43250665,0,0,0.43250665,-97.271653,-3.4942331)"><path
           id="path800"
           style="fill:#35bfa4;fill-rule:evenodd;stroke-width:9.09092;stroke-linecap:round;stroke-linejoin:round;paint-order:stroke fill markers"
           d="m 90.909101,72.727291 c -10.0727,0 -18.1818,8.10908 -18.1818,18.18184 V 254.5455 c 0,10.07275 8.1091,18.18183 18.1818,18.18183 H 127.2728 V 127.27272 h 72.72723 V 72.727291 Z m 127.272769,0 V 272.72733 h 36.36367 c 10.07267,0 18.18175,-8.10908 18.18175,-18.18183 V 90.909131 c 0,-10.07276 -8.10908,-18.18184 -18.18175,-18.18184 z M 145.4546,145.45455 v 127.27278 h 54.54543 V 145.45455 Z" /><path
           id="path802"
           style="font-style:normal;font-variant:normal;font-weight:bold;font-stretch:normal;font-size:193px;line-height:125%;font-family:Comfortaa;-inkscape-font-specification:'Comfortaa Bold';letter-spacing:0px;word-spacing:0px;fill:#4f4f4f;fill-opacity:1;stroke:none"
           d="m 753.06836,91.693359 c -3.20415,1.36e-4 -5.93755,1.130997 -8.19922,3.392579 -2.26176,2.261846 -3.39263,4.995242 -3.39258,8.199222 -5e-5,3.20421 1.13082,5.93762 3.39258,8.19922 2.26167,2.26182 4.99507,3.39269 8.19922,3.39257 3.20405,1.2e-4 5.93745,-1.13075 8.19922,-3.39257 2.26166,-2.2616 3.39253,-4.99501 3.39258,-8.19922 -5e-5,-3.20398 -1.13092,-5.937377 -3.39258,-8.199222 -2.26177,-2.261582 -4.99517,-3.392443 -8.19922,-3.392579 z m 0,30.345701 c -2.70154,1.1e-4 -5.02511,0.97439 -6.97266,2.92188 -1.88479,1.88486 -2.82815,4.20845 -2.82812,6.97265 v 95.18164 c -3e-5,3.58106 -0.69014,6.94076 -2.07227,10.08204 -1.38218,3.14125 -3.26696,5.87466 -5.65429,8.19921 -2.32457,2.38735 -5.05797,4.24119 -8.19922,5.56055 -3.14129,1.38214 -6.50294,2.07225 -10.08399,2.07227 -2.82715,-2e-5 -5.1836,0.91241 -7.06836,2.73437 -1.82194,1.88474 -2.73242,4.23923 -2.73242,7.06641 0,2.82711 0.91048,5.18356 2.73242,7.06836 1.88476,1.88473 4.24121,2.82808 7.06836,2.82812 6.21972,-4e-5 12.09438,-1.22563 17.62305,-3.67578 5.5286,-2.38741 10.3652,-5.65433 14.51172,-9.80078 4.14643,-4.14651 7.41337,-8.98505 9.80078,-14.51367 2.45015,-5.52865 3.67572,-11.40137 3.67578,-17.6211 v -95.18164 c -6e-5,-2.76421 -0.97434,-5.08779 -2.92187,-6.97265 -1.88482,-1.94749 -4.17746,-2.92177 -6.87891,-2.92188 z m -415.99414,1.07617 c -2.70151,1e-4 -5.02508,0.97439 -6.97266,2.92188 -1.88478,1.88486 -2.82813,4.17751 -2.82812,6.87891 v 85.85156 c -10e-6,2.76433 0.94334,5.11882 2.82812,7.0664 1.94757,1.88476 4.30402,2.82813 7.06836,2.82813 2.70148,0 4.99412,-0.94337 6.87891,-2.82813 1.94756,-1.94758 2.92185,-4.30207 2.92187,-7.0664 v -53.62305 c -2e-5,-3.07838 0.56443,-5.96835 1.69532,-8.66992 1.19365,-2.70142 2.7962,-5.05591 4.80664,-7.06641 2.0732,-2.07315 4.46058,-3.6757 7.16211,-4.80664 2.70145,-1.1936 5.59142,-1.79092 8.66992,-1.79101 3.07838,9e-5 5.96836,0.59741 8.66992,1.79101 2.70143,1.19377 5.05788,2.79632 7.06836,4.80664 2.01035,2.0105 3.61094,4.36499 4.80469,7.06641 1.19361,2.70157 1.79094,5.59154 1.79101,8.66992 v 53.62305 c -7e-5,2.76433 0.94329,5.11882 2.82813,7.0664 1.9475,1.88476 4.30201,2.82813 7.0664,2.82813 2.70141,0 4.99601,-0.94337 6.88086,-2.82813 1.94749,-1.94758 2.91983,-4.30207 2.91992,-7.0664 v -53.62305 c -9e-5,-3.07838 0.56632,-5.96835 1.69727,-8.66992 1.19359,-2.70142 2.79613,-5.05591 4.80664,-7.06641 2.07314,-2.01032 4.46051,-3.61287 7.16211,-4.80664 2.70139,-1.1936 5.59136,-1.79092 8.66992,-1.79101 3.14116,9e-5 6.06206,0.59741 8.76367,1.79101 2.7642,1.19377 5.15158,2.82724 7.16211,4.90039 2.01029,2.01049 3.57994,4.36695 4.71094,7.06836 1.19354,2.70157 1.79089,5.55867 1.79102,8.57422 v 53.62305 c -1.3e-4,2.76433 0.94322,5.11882 2.82812,7.0664 1.88463,1.88476 4.2082,2.82813 6.97266,2.82813 2.70134,0 4.99399,-0.94337 6.8789,-2.82813 1.94743,-1.94758 2.92172,-4.30207 2.92188,-7.0664 v -53.62305 c -1.6e-4,-5.71704 -1.13102,-11.12005 -3.39258,-16.20898 -2.19905,-5.15161 -5.21467,-9.61124 -9.04687,-13.38086 -3.76967,-3.83226 -8.22932,-6.84789 -13.38086,-9.04688 -5.089,-2.26161 -10.49199,-3.39248 -16.20899,-3.39258 -12.69085,1e-4 -23.40408,4.99523 -32.13672,14.98438 -4.14655,-5.02595 -8.98315,-8.76455 -14.51172,-11.21484 -5.5287,-2.51291 -11.43431,-3.76944 -17.71679,-3.76954 -8.54431,1e-4 -16.1781,2.23091 -22.90039,6.69141 -0.62828,-2.01032 -1.79007,-3.61286 -3.48633,-4.80664 -1.69631,-1.25641 -3.64487,-1.88467 -5.84375,-1.88477 z m 209.58008,0 c -14.57555,1e-4 -27.01502,5.1518 -37.31836,15.45508 -10.30339,10.30345 -15.45509,22.74294 -15.45508,37.31836 -10e-6,14.57555 5.15169,27.01501 15.45508,37.31836 10.30334,10.30338 22.74281,15.45508 37.31836,15.45508 6.28248,0 12.18808,-1.00521 17.71679,-3.01563 5.52856,-2.0104 10.64934,-4.90038 15.36133,-8.66992 v 1.88477 c -9e-5,2.7015 0.94132,5.02507 2.82617,6.97265 1.94749,1.88476 4.30395,2.82813 7.06836,2.82813 2.70139,0 4.99403,-0.94337 6.87891,-2.82813 1.94747,-1.94758 2.92176,-4.27115 2.92187,-6.97265 v -42.97266 c -1.1e-4,-14.57542 -5.1518,-27.01491 -15.45507,-37.31836 -10.42911,-10.30328 -22.86858,-15.45498 -37.31836,-15.45508 z m 80.84961,0 c -2.76434,1e-4 -5.12079,0.97439 -7.06836,2.92188 -1.88478,1.94769 -2.82618,4.27126 -2.82617,6.97266 v 85.75781 c -10e-6,2.76433 0.94139,5.11882 2.82617,7.0664 1.94757,1.88476 4.30402,2.82813 7.06836,2.82813 2.70147,0 4.99412,-0.94337 6.8789,-2.82813 1.94757,-1.94758 2.92185,-4.30207 2.92188,-7.0664 v -46.46094 c -3e-5,-4.02077 0.75388,-7.82123 2.26172,-11.40234 1.5706,-3.58098 3.70667,-6.72225 6.4082,-9.42383 2.70146,-2.70141 5.81181,-4.80657 9.33008,-6.31445 3.581,-1.57055 7.41239,-2.35538 11.49609,-2.35547 4.02077,9e-5 7.82123,0.78492 11.40234,2.35547 3.58099,1.57071 6.69135,3.70678 9.33008,6.4082 2.70142,2.63875 4.83749,5.7491 6.40821,9.33008 1.57054,3.58111 2.35539,7.38157 2.35547,11.40234 v 46.46094 c -8e-5,2.76433 0.94327,5.11882 2.82812,7.0664 1.9475,1.88476 4.30395,2.82813 7.06836,2.82813 2.7014,0 4.99404,-0.94337 6.87891,-2.82813 1.94747,-1.94758 2.92177,-4.30207 2.92187,-7.0664 v -46.46094 c -10e-5,-6.78508 -1.32043,-13.16041 -3.95898,-19.12891 -2.63877,-6.03116 -6.21886,-11.24666 -10.74219,-15.64453 -4.52352,-4.46051 -9.76995,-7.97874 -15.73828,-10.55468 -5.90567,-2.57574 -12.1573,-3.86319 -18.75391,-3.86329 -11.30863,1e-4 -21.14034,3.23612 -29.49609,9.70704 -3e-5,-2.57574 -0.97431,-4.83747 -2.92188,-6.78516 -1.88478,-1.94749 -4.17743,-2.92178 -6.8789,-2.92188 z m 206.32031,0 c -14.57556,1e-4 -27.01502,5.1518 -37.31836,15.45508 -10.30339,10.30345 -15.45508,22.74294 -15.45508,37.31836 0,14.57555 5.15169,27.01501 15.45508,37.31836 10.30334,10.30338 22.7428,15.45508 37.31836,15.45508 6.28248,0 12.18808,-1.00521 17.7168,-3.01563 5.52855,-2.0104 10.64933,-4.90038 15.36132,-8.66992 v 1.88477 c -10e-5,2.7015 0.94327,5.02507 2.82813,6.97265 1.94749,1.88476 4.30198,2.82813 7.06641,2.82813 2.70138,0 4.99599,-0.94337 6.88085,-2.82813 1.94747,-1.94758 2.91982,-4.27115 2.91993,-6.97265 v -42.97266 c -1.1e-4,-14.57542 -5.15181,-27.01491 -15.45508,-37.31836 -10.42911,-10.30328 -22.86858,-15.45498 -37.31836,-15.45508 z m 80.85156,0 c -2.76434,1e-4 -5.12078,0.97439 -7.06836,2.92188 -1.88477,1.88486 -2.82813,4.17751 -2.82812,6.87891 v 85.94531 c -1e-5,2.7015 0.94335,5.02507 2.82812,6.97265 1.94758,1.88476 4.30402,2.82813 7.06836,2.82813 2.70148,0 4.99413,-0.94337 6.87891,-2.82813 1.94757,-1.94758 2.92184,-4.27115 2.92187,-6.97265 v -42.97266 c -3e-5,-4.58619 0.84665,-8.88926 2.54297,-12.91015 1.75908,-4.02076 4.11552,-7.50807 7.06836,-10.46094 3.01558,-3.01555 6.53382,-5.37199 10.55469,-7.06836 4.02078,-1.75903 8.32384,-2.63858 12.91015,-2.63867 4.64902,9e-5 8.95405,0.78492 12.91211,2.35547 1.57057,0.69115 2.95273,1.03718 4.14649,1.0371 1.38208,8e-5 2.66951,-0.25121 3.86328,-0.7539 1.1936,-0.50252 2.22974,-1.19263 3.10937,-2.07227 0.87947,-0.94229 1.57152,-2.01131 2.07422,-3.20507 0.56535,-1.1936 0.84757,-2.48104 0.84766,-3.86329 -9e-5,-2.70139 -0.87964,-4.90126 -2.63867,-6.59765 -1.75919,-1.69619 -3.99,-3.01454 -6.69141,-3.95703 -2.63875,-1.0051 -5.55964,-1.69716 -8.76367,-2.07422 -3.14134,-0.37685 -6.09512,-0.56435 -8.85938,-0.56446 -6.2826,1.1e-4 -12.1882,1.00531 -17.71679,3.01563 -5.52868,2.01051 -10.6475,4.90049 -15.35938,8.66992 v -1.88476 c -3e-5,-2.7014 -0.9743,-4.99405 -2.92187,-6.87891 -1.88478,-1.94749 -4.17743,-2.92177 -6.87891,-2.92188 z m 122.60352,0 c -14.5755,1e-4 -27.0151,5.1518 -37.31836,15.45508 -10.30343,10.30345 -15.45508,22.74294 -15.45508,37.31836 0,14.57555 5.15165,27.01501 15.45508,37.31836 10.30326,10.30338 22.74286,15.45508 37.31836,15.45508 14.4498,0 26.8893,-5.1517 37.3184,-15.45508 10.3032,-10.1777 15.4549,-22.61716 15.455,-37.31836 -0.063,-7.28768 -1.3813,-14.04193 -3.957,-20.26172 -2.5132,-6.21964 -6.3464,-11.90486 -11.498,-17.05664 -10.4291,-10.30328 -22.8686,-15.45497 -37.3184,-15.45508 z m -490.625,19.69532 c 4.58619,9e-5 8.88926,0.87964 12.91015,2.63867 4.02076,1.7592 7.50806,4.14657 10.46094,7.16211 3.01554,3.0157 5.37198,6.53393 7.06836,10.55469 1.75902,3.95806 2.63858,8.19929 2.63867,12.72265 -9e-5,4.52348 -0.87965,8.79562 -2.63867,12.81641 -1.69638,3.95803 -4.05282,7.4434 -7.06836,10.45898 -2.95288,3.01566 -6.44018,5.40302 -10.46094,7.16211 -4.02089,1.75914 -8.32396,2.64065 -12.91015,2.64063 -4.64914,2e-5 -8.98509,-0.88149 -13.00586,-2.64063 -4.02087,-1.75909 -7.50623,-4.11358 -10.45899,-7.0664 -2.95282,-3.01559 -5.30928,-6.53384 -7.06836,-10.55469 -1.69631,-4.02079 -2.54495,-8.29293 -2.54492,-12.81641 -3e-5,-4.52336 0.84861,-8.79551 2.54492,-12.8164 1.75908,-4.02076 4.11554,-7.50806 7.06836,-10.46094 2.95276,-3.01554 6.43812,-5.40291 10.45899,-7.16211 4.02077,-1.75903 8.35672,-2.63858 13.00586,-2.63867 z m 287.16992,0 c 4.58619,9e-5 8.8912,0.87964 12.91211,2.63867 4.02074,1.7592 7.50611,4.14657 10.45898,7.16211 3.01553,3.0157 5.37198,6.53393 7.06836,10.55469 1.75902,3.95806 2.63857,8.19929 2.63867,12.72265 -10e-5,4.52348 -0.87965,8.79562 -2.63867,12.81641 -1.69638,3.95803 -4.05283,7.4434 -7.06836,10.45898 -2.95287,3.01566 -6.43824,5.40302 -10.45898,7.16211 -4.02091,1.75914 -8.32592,2.64065 -12.91211,2.64063 -4.64914,2e-5 -8.98313,-0.88149 -13.00391,-2.64063 -4.02087,-1.75909 -7.50818,-4.11358 -10.46093,-7.0664 -2.95283,-3.01559 -5.30929,-6.53384 -7.06836,-10.55469 -1.69632,-4.02079 -2.54299,-8.29293 -2.54297,-12.81641 -2e-5,-4.52336 0.84665,-8.79551 2.54297,-12.8164 1.75907,-4.02076 4.11553,-7.50806 7.06836,-10.46094 2.95275,-3.01554 6.44006,-5.40291 10.46093,-7.16211 4.02078,-1.75903 8.35477,-2.63858 13.00391,-2.63867 z m 203.45508,0 c 4.5862,9e-5 8.8912,0.87964 12.9121,2.63867 4.0208,1.7592 7.5061,4.14657 10.459,7.16211 3.0155,3.0157 5.372,6.53393 7.0684,10.55469 1.7589,3.95806 2.6385,8.19929 2.6386,12.72265 -1e-4,4.52348 -0.8797,8.79562 -2.6386,12.81641 -1.6964,3.95803 -4.0529,7.4434 -7.0684,10.45898 -2.9529,3.01566 -6.4382,5.40302 -10.459,7.16211 -4.0209,1.75914 -8.3259,2.64065 -12.9121,2.64063 -4.6491,2e-5 -8.9831,-0.88149 -13.0039,-2.64063 -4.0209,-1.75909 -7.5082,-4.11358 -10.4609,-7.0664 -2.9528,-3.01559 -5.3093,-6.53384 -7.0684,-10.55469 -1.6963,-4.02079 -2.5431,-8.29293 -2.543,-12.81641 -10e-5,-4.52336 0.8467,-8.79551 2.543,-12.8164 1.7591,-4.02076 4.1156,-7.50806 7.0684,-10.46094 2.9527,-3.01554 6.44,-5.40291 10.4609,-7.16211 4.0208,-1.75903 8.3548,-2.63858 13.0039,-2.63867 z" /></g></g></g></svg>
