<svg xmlns="http://www.w3.org/2000/svg" xmlns:xlink="http://www.w3.org/1999/xlink" width="500" zoomAndPan="magnify" viewBox="0 0 375 374.999991" height="500" preserveAspectRatio="xMidYMid meet" version="1.0"><defs><clipPath id="4e00b7349c"><path d="M 55.8125 55.8125 L 225 55.8125 L 225 319.0625 L 55.8125 319.0625 Z M 55.8125 55.8125 " clip-rule="nonzero"/></clipPath><clipPath id="1f94a43b66"><path d="M 150 150 L 225 150 L 225 319.0625 L 150 319.0625 Z M 150 150 " clip-rule="nonzero"/></clipPath><clipPath id="5806dd523b"><path d="M 245 55.8125 L 319.0625 55.8125 L 319.0625 319.0625 L 245 319.0625 Z M 245 55.8125 " clip-rule="nonzero"/></clipPath></defs><g clip-path="url(#4e00b7349c)"><path fill="#ffffff" d="M 55.8125 55.8125 L 55.8125 319.0625 L 129.851562 319.0625 L 129.851562 129.851562 L 224.457031 129.851562 L 224.457031 55.8125 Z M 55.8125 55.8125 " fill-opacity="1" fill-rule="nonzero"/></g><g clip-path="url(#1f94a43b66)"><path fill="#ffffff" d="M 150.417969 150.417969 L 150.417969 319.0625 L 224.457031 319.0625 L 224.457031 150.417969 Z M 150.417969 150.417969 " fill-opacity="1" fill-rule="nonzero"/></g><g clip-path="url(#5806dd523b)"><path fill="#ffffff" d="M 245.023438 55.8125 L 245.023438 319.0625 L 319.0625 319.0625 L 319.0625 55.8125 Z M 245.023438 55.8125 " fill-opacity="1" fill-rule="nonzero"/></g></svg>